<svg height="512" viewBox="0 0 512 512" width="512" xmlns="http://www.w3.org/2000/svg"><g id="Flat"><path d="m328 260.5v43.5h-144v-43.5l24-4.5v-72h96v72z" fill="#fec9a3"/><path d="m432 319.83v136.17h-352v-136.16a48 48 0 0 1 39.15-47.18l88.85-16.66 48 16 48-16 88.85 16.66a47.956 47.956 0 0 1 39.15 47.17z" fill="#4d5e78"/><path d="m432 319.83v136.17h-232.87c84.16-39.67 158.8-97.01 210.05-177.04a48 48 0 0 1 22.82 40.87z" fill="#44546c"/><path d="m208 256 48 184 48-184.003-48 16.003z" fill="#b0b0ae"/><path d="m304 255.997-48 16.003 36.258 29.007z" fill="#e0e0de"/><path d="m256 272-48-16 11.741 45.007z" fill="#e0e0de"/><path d="m272 378.666v-93.866l-16-12.8-16 12.8v93.867l16 61.333z" fill="#348fd9"/><path d="m192 328-8 32 72 80-48-184-32 6-24 58z" fill="#556a8a"/><path d="m320 328 8 32-72 80 48-184 32 6 24 58z" fill="#556a8a"/><path d="m144 352h16v96h-16z" fill="#313b4c"/><path d="m352 352h16v96h-16z" fill="#313b4c"/><path d="m384 368h48v72l-40-.003-48.161 6.88-7.839-54.877z" fill="#fec9a3"/><path d="m298.818 394.32 9.192 59.761-156.01 33.919h-48a24 24 0 0 1 -24-24v-56z" fill="#404f66"/><path d="m343.839 446.877-7.839 1.123-27.99 6.081-9.192-59.761 37.182-2.32z" fill="#e0e0de"/><path d="m128 368h-48v72l40-.003 48.161 6.88 7.839-54.877z" fill="#fec9a3"/><path d="m230.61 395.41-4.53 63.48-50.08-10.89-7.84-1.12 7.84-54.88z" fill="#e0e0de"/><path d="m213.181 394.324-5.181 69.676 152 24h48a24 24 0 0 0 24-24v-56z" fill="#4d5e78"/><path d="m240 432h16v16h-16z" fill="#313b4c"/><path d="m272 432h16v16h-16z" fill="#313b4c"/><g fill="#feb784"><path d="m304 229.567v-45.567h-48-48v45.567a71.687 71.687 0 0 0 96 0z"/><path d="m328 104v48a24 24 0 0 0 0-48z"/><path d="m184.405 104h-.4a24 24 0 0 0 -.005 48v-48z"/></g><path d="m328 96v64a72.01 72.01 0 0 1 -71.56 72h-.44a72.006 72.006 0 0 1 -72-72v-64c0-39.76 32.24-64 72-64h.44c19.71.09 37.54 6.14 50.47 17.09 13.03 11.03 21.09 27.03 21.09 46.91z" fill="#fec9a3"/><path d="m328 96v64a72.01 72.01 0 0 1 -71.56 72 83.279 83.279 0 0 0 34.44-67.52v-64.97a83.26 83.26 0 0 0 -34.44-67.51c19.71.09 37.54 6.14 50.47 17.09 13.03 11.03 21.09 27.03 21.09 46.91z" fill="#fec093"/><circle cx="220" cy="116" fill="#7a432a" r="12"/><circle cx="292" cy="116" fill="#7a432a" r="12"/><path d="m246.891 176h-14.891v-16h14.891c10.953 0 21.554-2.516 29.078-6.906l8.062 13.812c-10.047 5.867-23.231 9.094-37.14 9.094z" fill="#f7a468"/><path d="m328 120v-32c0-26.51-17.909-48-40-48l1.408 5.068c7.842 28.232 21.055 53.888 38.592 74.932z" fill="#6e3c24"/><path d="m184 120v-55.015a25.754 25.754 0 0 1 32-24.985v24s-14.463 34.956-32 56z" fill="#6e3c24"/><path d="m216 64h112a40 40 0 0 0 -40-40h-33.373a54.626 54.626 0 0 0 -38.627 16z" fill="#7a432a"/><path d="m261.584 24-31.04 40h20.26l31.04-40z" fill="#6e3c24"/><path d="m317.826 37.584a39.9 39.9 0 0 0 -12.926-9.721l-36.777 36.137h22.824z" fill="#6e3c24"/></g></svg>