<svg id="Capa_1" enable-background="new 0 0 512 512" height="512" viewBox="0 0 512 512" width="512" xmlns="http://www.w3.org/2000/svg"><g><path d="m327.079 277.675h-238.125c-17.069 0-30.905 13.837-30.905 30.906v105.037l.545 1h47.962c2.288 0 4.15 1.862 4.15 4.151v91.397l1 1.834h167.92l1-2.527v-190.322c0-2.289 1.862-4.151 4.15-4.151h72.812l.396-1v-5.42c0-17.068-13.836-30.905-30.905-30.905z" fill="#0593fc"/><path d="m89.988 308.581c0-17.069 13.837-30.906 30.905-30.906h-31.939c-17.069 0-30.905 13.837-30.905 30.906v105.037h31.939z" fill="#0182fc"/><g><path d="m111.706 418.769c0-2.845-2.306-5.151-5.151-5.151h-48.507v93.231c0 2.845 2.306 5.151 5.151 5.151h48.507z" fill="#f1b0a2"/></g><g><path d="m90.052 506.849v-93.231h-32.003v93.231c0 2.845 2.306 5.151 5.151 5.151h32.004c-2.845 0-5.152-2.306-5.152-5.151z" fill="#eb9c8d"/></g><g><g><path d="m267.713 20.856h-29.846c3.571 6.022 5.629 13.041 5.629 20.535v41.489h17.492c16.183 0 29.348 13.165 29.348 29.347v16.229h14.891c4.313 0 8.434.826 12.226 2.313v-60.173c0-27.471-22.269-49.74-49.74-49.74z" fill="#fb8801"/></g><path d="m110.807 128.455h14.891v-16.229c0-16.182 13.165-29.347 29.347-29.347h89.452v-41.488c-.001-22.86-18.532-41.391-41.391-41.391h-93.796c-5.926 0-10.73 4.804-10.73 10.729v120.038c3.792-1.486 7.914-2.312 12.227-2.312z" fill="#fe9901"/><path d="m110.807 128.455h14.891v-16.229c0-11.358 6.49-21.222 15.953-26.098v-75.399c-.001-5.925 4.803-10.729 10.728-10.729h-43.07c-5.926 0-10.73 4.804-10.73 10.729v120.039c3.793-1.487 7.915-2.313 12.228-2.313z" fill="#fb8801"/><g><path d="m208.016 335.063c28.693 0 52.036-23.343 52.036-52.036v-5.353h-104.071v5.353c0 28.693 23.343 52.036 52.035 52.036z" fill="#0182fc"/></g><path d="m181.735 254.858v28.169c0 14.515 11.767 26.281 26.281 26.281 14.515 0 26.281-11.767 26.281-26.281v-28.169z" fill="#eb9c8d"/><path d="m209 283.028v-28.169h-27.265v28.169c0 14.515 11.767 26.281 26.281 26.281 4.991 0 9.658-1.392 13.632-3.808-7.583-4.61-12.648-12.95-12.648-22.473z" fill="#d78878"/><g><path d="m125.697 127.454h-14.891c-19.108 0-34.598 15.49-34.598 34.598v7.078c0 19.108 15.49 34.598 34.598 34.598h14.891z" fill="#d78878"/><path d="m305.226 127.454h-14.89v76.275h14.89c19.108 0 34.598-15.49 34.598-34.598v-7.078c0-19.108-15.49-34.599-34.598-34.599z" fill="#eb9c8d"/></g><g><path d="m240.91 255.859h-65.788c-27.849 0-50.425-22.576-50.425-50.425v-93.207c0-16.76 13.587-30.347 30.347-30.347h105.945c16.76 0 30.347 13.587 30.347 30.347v93.207c-.001 27.848-22.577 50.425-50.426 50.425z" fill="#f1b0a2"/></g><g><path d="m157.103 205.433v-93.207c0-16.76 13.587-30.347 30.347-30.347h-32.405c-16.76 0-30.347 13.587-30.347 30.347v93.207c0 27.849 22.576 50.425 50.425 50.425h32.405c-27.849.001-50.425-22.576-50.425-50.425z" fill="#eb9c8d"/></g><g><path d="m208.017 224.217c-10.312 0-20.005-4.015-27.296-11.306-2.929-2.929-2.929-7.678.001-10.606 2.928-2.929 7.677-2.929 10.606 0 4.457 4.458 10.384 6.913 16.688 6.913s12.23-2.455 16.688-6.913c2.93-2.929 7.679-2.93 10.606 0 2.93 2.929 2.93 7.677.001 10.606-7.29 7.291-16.984 11.306-27.294 11.306z" fill="#a44f3e"/></g><g><path d="m208.013 185.225c-1.692 0-3.396-.57-4.797-1.738l-9.43-7.857c-2.629-2.19-3.442-5.881-1.977-8.974l9.43-19.899c1.773-3.743 6.246-5.34 9.989-3.566 3.743 1.773 5.34 6.246 3.565 9.989l-6.94 14.647 4.964 4.137c3.183 2.651 3.612 7.381.961 10.563-1.483 1.779-3.617 2.698-5.765 2.698z" fill="#a44f3e"/></g><g><g><path d="m168.18 159.811c-4.143 0-7.5-3.358-7.5-7.5v-15.1c0-4.142 3.357-7.5 7.5-7.5s7.5 3.358 7.5 7.5v15.1c0 4.142-3.358 7.5-7.5 7.5z" fill="#a44f3e"/></g><g><path d="m247.852 159.811c-4.143 0-7.5-3.358-7.5-7.5v-15.1c0-4.142 3.357-7.5 7.5-7.5s7.5 3.358 7.5 7.5v15.1c0 4.142-3.358 7.5-7.5 7.5z" fill="#a44f3e"/></g></g></g><g><g><path d="m448.801 512h-169.175v-192.849c0-2.845 2.306-5.151 5.151-5.151h164.024c2.845 0 5.151 2.306 5.151 5.151v187.698c0 2.845-2.307 5.151-5.151 5.151z" fill="#fed402"/></g><g><path d="m316.781 314h-32.004c-2.845 0-5.151 2.306-5.151 5.151v192.849h32.004v-192.849c0-2.844 2.306-5.151 5.151-5.151z" fill="#fac600"/></g><g><path d="m448.801 512h-169.175v-47.348h174.326v42.197c0 2.845-2.307 5.151-5.151 5.151z" fill="#fac600"/></g><g><path d="m279.626 464.652h32.004v47.348h-32.004z" fill="#e8b800"/></g><g><path d="m406.604 359.217c-4.143 0-7.5-3.358-7.5-7.5v-50.629c0-17.818-14.496-32.315-32.314-32.315s-32.315 14.497-32.315 32.315v50.629c0 4.142-3.357 7.5-7.5 7.5s-7.5-3.358-7.5-7.5v-50.629c0-26.089 21.226-47.315 47.315-47.315s47.314 21.226 47.314 47.315v50.629c0 4.142-3.358 7.5-7.5 7.5z" fill="#266c8f"/></g></g></g></svg>